<svg width="45" height="44" viewBox="0 0 45 44" fill="none" xmlns="http://www.w3.org/2000/svg">
<path d="M44.5 22C44.5 33.8636 34.6609 43.5 22.5 43.5C10.3391 43.5 0.5 33.8636 0.5 22C0.5 10.1364 10.3391 0.5 22.5 0.5C34.6609 0.5 44.5 10.1364 44.5 22Z" fill="white" stroke="black"/>
<path d="M14.2143 12.2751C14.2143 16.8454 17.9239 20.5503 22.5 20.5503C27.0761 20.5503 30.7857 16.8454 30.7857 12.2751C30.7857 7.7049 27.0761 4 22.5 4C17.9239 4 14.2143 7.7049 14.2143 12.2751Z" fill="white"/>
<path d="M37 38C37 30.0021 30.5081 23.5185 22.5 23.5185C14.4919 23.5185 8 30.0021 8 38M22.5 20.5503C17.9239 20.5503 14.2143 16.8454 14.2143 12.2751C14.2143 7.7049 17.9239 4 22.5 4C27.0761 4 30.7857 7.7049 30.7857 12.2751C30.7857 16.8454 27.0761 20.5503 22.5 20.5503Z" stroke="black" stroke-linecap="round" stroke-linejoin="round"/>
</svg>
