<svg width="35" height="31" viewBox="0 0 35 31" fill="none" xmlns="http://www.w3.org/2000/svg">
<path d="M7.85559 29.6203L3.85832 30.8125C3.69575 30.8592 3.52468 30.8659 3.35906 30.8323C3.19343 30.7987 3.03794 30.7255 2.90526 30.6189C2.77258 30.5123 2.66647 30.3752 2.59558 30.2187C2.52468 30.0623 2.49102 29.891 2.49732 29.7188V24.9391C1.35623 23.1843 0.64563 21.1751 0.425535 19.081C0.20544 16.987 0.482312 14.8697 1.23277 12.9078C1.27565 12.7639 1.34717 12.6305 1.44286 12.516C1.53855 12.4015 1.65635 12.3085 1.7889 12.2426C1.92145 12.1767 2.06589 12.1394 2.21318 12.1331C2.36048 12.1268 2.50747 12.1516 2.64496 12.2059C2.78245 12.2602 2.90747 12.3429 3.01222 12.4488C3.11697 12.5547 3.19918 12.6815 3.25372 12.8213C3.30826 12.9611 3.33396 13.1109 3.32919 13.2613C3.32443 13.4116 3.28932 13.5594 3.22605 13.6953C2.58533 15.3757 2.36159 17.1916 2.57473 18.9816C2.78788 20.7715 3.4313 22.4799 4.44773 23.9547C4.74779 24.4031 4.64063 24.6766 4.64063 28.2641C7.85559 27.3234 7.91989 27.1703 8.41285 27.4656C10.1887 28.3733 12.1767 28.7595 14.155 28.581C16.1334 28.4026 18.0242 27.6665 19.6165 26.4551C21.2088 25.2436 22.44 23.6043 23.1725 21.7202C23.9051 19.8362 24.1102 17.7814 23.7651 15.7852C23.4199 13.789 22.5381 11.93 21.2179 10.4157C19.8977 8.90129 18.1912 7.79113 16.2888 7.20909C14.3864 6.62704 12.3629 6.59602 10.4442 7.11946C8.52551 7.64291 6.78708 8.70023 5.42294 10.1734C5.3304 10.2899 5.21539 10.3857 5.08504 10.4549C4.9547 10.5241 4.81181 10.5652 4.66524 10.5757C4.51868 10.5861 4.37157 10.5657 4.23307 10.5157C4.09456 10.4656 3.96761 10.3871 3.86011 10.2849C3.7526 10.1827 3.66684 10.059 3.60814 9.92153C3.54944 9.78407 3.51907 9.63576 3.5189 9.48581C3.51873 9.33586 3.54878 9.18747 3.60717 9.04987C3.66556 8.91227 3.75105 8.7884 3.85832 8.68594C5.48079 6.92956 7.54642 5.66386 9.82804 5.02805C12.1097 4.39224 14.5189 4.41093 16.7908 5.08208C19.0627 5.75324 21.1092 7.05085 22.7053 8.83221C24.3014 10.6136 25.3853 12.8097 25.8377 15.179C26.2901 17.5483 26.0935 19.9991 25.2696 22.2618C24.4457 24.5245 23.0263 26.5115 21.1676 28.0042C19.3089 29.4969 17.0828 30.4376 14.7342 30.7227C12.3857 31.0078 10.0055 30.6264 7.85559 29.6203Z" fill="black"/>
<path d="M14.2851 23.1562C14.0661 23.157 13.8522 23.0892 13.6721 22.9621C13.492 22.835 13.3543 22.6546 13.2777 22.4453L11.0701 16.4297L8.86248 22.4453C8.81323 22.5803 8.7384 22.7041 8.64227 22.8096C8.54614 22.9151 8.43059 23.0002 8.30222 23.0602C8.04296 23.1812 7.74722 23.1921 7.48005 23.0906C7.34776 23.0403 7.22647 22.964 7.1231 22.8658C7.01974 22.7677 6.93631 22.6498 6.8776 22.5188C6.75903 22.2542 6.7483 21.9523 6.84778 21.6797L10.0627 12.9297C10.1378 12.7185 10.2748 12.5361 10.455 12.4072C10.6353 12.2782 10.85 12.2091 11.0701 12.2091C11.2902 12.2091 11.5049 12.2782 11.6852 12.4072C11.8654 12.5361 12.0024 12.7185 12.0774 12.9297L15.2924 21.6797C15.3531 21.8454 15.3735 22.0237 15.3518 22.1992C15.3301 22.3747 15.2671 22.5423 15.168 22.6875C15.0689 22.8327 14.9369 22.9512 14.7831 23.0328C14.6293 23.1145 14.4584 23.1568 14.2851 23.1562ZM17.5 23.1562C17.2158 23.1562 16.9432 23.041 16.7422 22.8359C16.5413 22.6308 16.4284 22.3526 16.4284 22.0625V13.3125C16.4284 13.0224 16.5413 12.7442 16.7422 12.5391C16.9432 12.334 17.2158 12.2187 17.5 12.2187C17.7842 12.2187 18.0568 12.334 18.2578 12.5391C18.4588 12.7442 18.5717 13.0224 18.5717 13.3125V22.0625C18.5717 22.3526 18.4588 22.6308 18.2578 22.8359C18.0568 23.041 17.7842 23.1562 17.5 23.1562Z" fill="#9F85EC"/>
<path d="M13.2134 20.9687H8.92679C8.64257 20.9687 8.36999 20.8535 8.16901 20.6484C7.96804 20.4433 7.85513 20.1651 7.85513 19.875C7.85513 19.5849 7.96804 19.3067 8.16901 19.1016C8.36999 18.8965 8.64257 18.7812 8.92679 18.7812H13.2134C13.4976 18.7812 13.7702 18.8965 13.9712 19.1016C14.1722 19.3067 14.2851 19.5849 14.2851 19.875C14.2851 20.1651 14.1722 20.4433 13.9712 20.6484C13.7702 20.8535 13.4976 20.9687 13.2134 20.9687Z" fill="#9F85EC"/>
<path d="M22.3225 26.4375C22.1206 26.4361 21.9232 26.3766 21.753 26.2658C21.5828 26.1549 21.4468 25.9972 21.3606 25.8109C21.2743 25.6246 21.2414 25.4172 21.2656 25.2127C21.2898 25.0081 21.3701 24.8147 21.4973 24.6547C22.7936 23.0536 23.6165 21.1089 23.8696 19.048C24.1228 16.9872 23.7958 14.8954 22.9268 13.0172C22.0579 11.1391 20.6829 9.5523 18.9628 8.44244C17.2427 7.33259 15.2485 6.74555 13.2134 6.74999H12.8062C12.5954 6.77386 12.3824 6.73334 12.1942 6.63358C12.0059 6.53381 11.8509 6.37928 11.7488 6.18955C11.6467 5.99983 11.602 5.78343 11.6205 5.56778C11.6389 5.35213 11.7196 5.14691 11.8524 4.97812C13.5353 2.88865 15.8096 1.38087 18.3642 0.661027C20.9188 -0.058816 23.6289 0.0444382 26.1238 0.956665C28.6187 1.86889 30.7765 3.54554 32.3021 5.75724C33.8277 7.96894 34.6465 10.6077 34.6465 13.3125C34.6465 20.7609 28.5702 26.4375 22.3225 26.4375ZM15.1638 4.70468C17.2001 5.02045 19.1322 5.83076 20.7976 7.06742C22.4631 8.30409 23.8131 9.93093 24.7342 11.8111C25.6553 13.6912 26.1204 15.7696 26.0905 17.8714C26.0606 19.9733 25.5365 22.037 24.5622 23.8891C26.0923 23.4637 27.5109 22.6971 28.7155 21.6445C29.9202 20.5918 30.8809 19.2795 31.5284 17.802C32.176 16.3245 32.4941 14.7188 32.46 13.1007C32.4259 11.4825 32.0403 9.89226 31.3311 8.4446C30.6219 6.99694 29.6068 5.72797 28.3588 4.72922C27.1109 3.73047 25.6614 3.02683 24.1148 2.66906C22.5682 2.31129 20.9631 2.3083 19.4152 2.66032C17.8673 3.01233 16.4153 3.71057 15.1638 4.70468Z" fill="black"/>
</svg>
