<svg width="20" height="18" viewBox="0 0 20 18" fill="none" xmlns="http://www.w3.org/2000/svg">
<path d="M12.947 17.25H10.7908C10.4223 17.2325 10.0748 17.0766 9.82026 16.8144C9.56575 16.5523 9.42378 16.2041 9.42378 15.842C9.42378 15.48 9.56575 15.1318 9.82026 14.8697C10.0748 14.6075 10.4223 14.4516 10.7908 14.4341H12.947C13.9103 14.4057 14.8244 14.0102 15.4956 13.3314C16.1667 12.6527 16.5421 11.7441 16.5421 10.7984C16.5421 9.85263 16.1667 8.94406 15.4956 8.26534C14.8244 7.58661 13.9103 7.19111 12.947 7.16268H5.45384L6.67257 8.35542C6.9207 8.62348 7.05418 8.97498 7.04534 9.33702C7.03649 9.69907 6.88599 10.0439 6.62505 10.3C6.36411 10.556 6.01275 10.7037 5.64383 10.7124C5.27491 10.7211 4.91674 10.5901 4.64359 10.3466L0.193877 5.98638C0.162846 5.95568 0.138296 5.91926 0.121634 5.87923C0.104972 5.8392 0.0965259 5.79633 0.0967807 5.75309C0.0971505 5.66689 0.132022 5.58429 0.193877 5.52309L4.64024 1.16287C4.90885 0.898821 5.27335 0.750309 5.65355 0.75C6.03374 0.749692 6.39849 0.897614 6.66755 1.16122C6.93661 1.42484 7.08794 1.78254 7.08826 2.15565C7.08857 2.52876 6.93784 2.88671 6.66923 3.15076L5.45384 4.34678H12.7796C14.5875 4.35558 16.3189 5.06402 17.5976 6.31824C18.2059 6.9067 18.6888 7.60805 19.0182 8.38144C19.3475 9.15483 19.5168 9.98481 19.5161 10.823C19.5117 12.5296 18.8175 14.1648 17.586 15.3697C16.3544 16.5747 14.6861 17.2509 12.947 17.25ZM10.7908 15.0912C10.5967 15.1039 10.4146 15.1884 10.2817 15.3279C10.1487 15.4673 10.0747 15.6511 10.0747 15.842C10.0747 16.033 10.1487 16.2168 10.2817 16.3562C10.4146 16.4956 10.5967 16.5802 10.7908 16.5928H12.947C14.5088 16.5929 16.0068 15.9851 17.1127 14.9029C18.2186 13.8207 18.8421 12.3524 18.8465 10.8197C18.8439 10.0718 18.6902 9.33183 18.3942 8.64261C18.0983 7.95339 17.6659 7.32864 17.1222 6.80454C15.9691 5.6676 14.4041 5.02495 12.7696 5.01708H4.64359C4.57749 5.01675 4.51296 4.99723 4.45814 4.96098C4.40333 4.92473 4.36067 4.87336 4.33556 4.81336C4.30992 4.75352 4.30291 4.68757 4.31542 4.62383C4.32794 4.56009 4.35941 4.50142 4.40587 4.45521L6.19379 2.70061C6.26567 2.63135 6.32296 2.54888 6.36237 2.4579C6.40178 2.36692 6.42255 2.26921 6.42348 2.17036C6.42441 2.0715 6.40549 1.97343 6.36781 1.88175C6.33012 1.79007 6.2744 1.70657 6.20383 1.63602C6.13326 1.56547 6.04922 1.50925 5.95651 1.47058C5.86381 1.4319 5.76424 1.41152 5.66351 1.41061C5.56278 1.40969 5.46284 1.42826 5.36942 1.46524C5.276 1.50223 5.19091 1.55691 5.11903 1.62616L0.903688 5.75309L5.11903 9.8833C5.26244 10.0236 5.45677 10.1023 5.65926 10.1019C5.86176 10.1016 6.05584 10.0224 6.19881 9.88166C6.34177 9.74092 6.42192 9.55021 6.4216 9.35149C6.42129 9.15276 6.34054 8.9623 6.19713 8.822L4.40921 7.06411C4.36314 7.01798 4.33194 6.95955 4.31952 6.89612C4.3071 6.83269 4.314 6.76708 4.33937 6.70748C4.36473 6.64787 4.40743 6.59693 4.46214 6.56101C4.51684 6.5251 4.58112 6.5058 4.64693 6.50553H12.9504C13.535 6.48966 14.117 6.58895 14.6618 6.79755C15.2067 7.00615 15.7034 7.31981 16.1227 7.72001C16.5419 8.12021 16.8751 8.59882 17.1027 9.12756C17.3302 9.65629 17.4475 10.2244 17.4475 10.7984C17.4475 11.3723 17.3302 11.9405 17.1027 12.4692C16.8751 12.998 16.5419 13.4766 16.1227 13.8768C15.7034 14.277 15.2067 14.5906 14.6618 14.7992C14.117 15.0078 13.535 15.1071 12.9504 15.0912H10.7908Z" fill="black"/>
</svg>
