<svg width="35" height="35" viewBox="0 0 35 35" fill="none" xmlns="http://www.w3.org/2000/svg">
<path d="M1.21894 24.4216C1.37901 24.4216 1.53752 24.4532 1.68541 24.5144C1.8333 24.5757 1.96767 24.6655 2.08086 24.7787C2.19405 24.8918 2.28384 25.0262 2.34509 25.1741C2.40635 25.322 2.43788 25.4805 2.43788 25.6406V30.838L10.2887 22.9886C10.4017 22.8753 10.5361 22.7854 10.684 22.7242C10.8319 22.6629 10.9905 22.6315 11.1505 22.6317C11.4626 22.6317 11.7746 22.7507 12.0126 22.9888C12.1258 23.102 12.2156 23.2363 12.2768 23.3842C12.3381 23.5321 12.3696 23.6906 12.3696 23.8507C12.3696 24.0108 12.338 24.1693 12.2767 24.3172C12.2155 24.465 12.1256 24.5994 12.0124 24.7126L4.1613 32.5621H9.35967C9.68296 32.5621 9.993 32.6905 10.2216 32.9191C10.4502 33.1477 10.5786 33.4577 10.5786 33.781C10.5786 34.1043 10.4502 34.4144 10.2216 34.643C9.993 34.8716 9.68296 35 9.35967 35H1.21894C0.895657 35 0.585615 34.8716 0.357019 34.643C0.128424 34.4144 0 34.1043 0 33.781L0 25.6404C4.31007e-05 25.3172 0.128486 25.0072 0.357077 24.7786C0.585668 24.55 0.895685 24.4216 1.21894 24.4216ZM33.7809 10.5784C33.4576 10.5784 33.1476 10.4499 32.919 10.2213C32.6904 9.99275 32.562 9.6827 32.562 9.35941V4.16189L24.4695 12.2545C24.2406 12.4815 23.9311 12.6085 23.6087 12.6078C23.2863 12.6071 22.9774 12.4788 22.7494 12.2509C22.5215 12.0229 22.3931 11.714 22.3924 11.3916C22.3917 11.0692 22.5187 10.7597 22.7456 10.5308L30.8379 2.43827H25.6408C25.3175 2.43827 25.0075 2.30984 24.7789 2.08124C24.5503 1.85264 24.4219 1.54259 24.4219 1.2193C24.4219 0.896008 24.5503 0.585957 24.7789 0.357353C25.0075 0.128754 25.3175 0.000328064 25.6408 0.000328064H33.7811C34.1043 0.000328064 34.4144 0.128754 34.643 0.357353C34.8716 0.585957 35 0.896008 35 1.2193V9.35941C34.9999 9.6827 34.8714 9.99272 34.6428 10.2213C34.4142 10.4499 34.1042 10.5783 33.7809 10.5784ZM10.5303 12.2545L2.43869 4.16205V9.35941C2.43869 10.0326 1.8931 10.5784 1.21975 10.5784C0.54641 10.5784 0.000812627 10.0326 0.000812627 9.35941V1.21897C0.000812627 0.895679 0.129236 0.585629 0.357832 0.357029C0.586428 0.128429 0.89647 0 1.21975 0H9.35967C9.68296 0 9.993 0.128429 10.2216 0.357029C10.4502 0.585629 10.5786 0.895679 10.5786 1.21897C10.5786 1.54226 10.4502 1.85231 10.2216 2.08091C9.993 2.30951 9.68296 2.43794 9.35967 2.43794H4.16244L12.2543 10.5308C12.3682 10.6438 12.4588 10.7782 12.5207 10.9263C12.5826 11.0744 12.6147 11.2333 12.615 11.3938C12.6154 11.5543 12.584 11.7133 12.5227 11.8617C12.4614 12.0101 12.3715 12.1449 12.258 12.2584C12.1444 12.3719 12.0096 12.4619 11.8613 12.5231C11.7129 12.5844 11.5539 12.6157 11.3933 12.6154C11.2328 12.615 11.074 12.583 10.9259 12.521C10.7778 12.4591 10.6433 12.3685 10.5303 12.2545ZM33.7809 35H25.6407C25.3174 35 25.0073 34.8716 24.7787 34.643C24.5501 34.4144 24.4217 34.1043 24.4217 33.781C24.4217 33.4577 24.5501 33.1477 24.7787 32.9191C25.0073 32.6905 25.3174 32.5621 25.6407 32.5621H30.8381L22.9884 24.7117C22.8179 24.5413 22.7019 24.3241 22.6548 24.0876C22.6078 23.8511 22.632 23.606 22.7242 23.3833C22.8165 23.1606 22.9728 22.9702 23.1732 22.8363C23.3737 22.7023 23.6094 22.6309 23.8504 22.6309C24.0106 22.6307 24.1691 22.6622 24.3171 22.7234C24.465 22.7847 24.5994 22.8746 24.7125 22.988L32.5621 30.8383V25.6406C32.5621 25.4805 32.5937 25.322 32.6549 25.1741C32.7162 25.0262 32.806 24.8918 32.9191 24.7787C33.0323 24.6655 33.1667 24.5757 33.3146 24.5144C33.4625 24.4532 33.621 24.4216 33.7811 24.4216C33.9411 24.4216 34.0996 24.4532 34.2475 24.5144C34.3954 24.5757 34.5298 24.6655 34.643 24.7787C34.7562 24.8918 34.846 25.0262 34.9072 25.1741C34.9685 25.322 35 25.4805 35 25.6406V33.781C35 34.1043 34.8715 34.4144 34.6429 34.643C34.4143 34.8716 34.1042 35 33.7809 35Z" fill="black"/>
</svg>
