<svg width="35" height="35" viewBox="0 0 35 35" fill="none" xmlns="http://www.w3.org/2000/svg">
<path d="M33.4105 7.61657V27.9499C33.4105 31.5335 30.5908 34.4385 27.1124 34.4385H7.37591C3.89744 34.4385 1.07776 31.5335 1.07776 27.9499V7.61657C1.07776 4.03291 3.89744 1.12796 7.37591 1.12796H27.1124C30.5908 1.12796 33.4105 4.03291 33.4105 7.61657Z" fill="white"/>
<path d="M21.5781 11.4181L19.04 12.8477L17.6524 15.4619L16.2641 12.8477L13.7266 11.4181L16.2641 9.98787L17.6524 7.37369L19.04 9.98787L21.5781 11.4181ZM27.1158 25.1893L24.5783 26.6195L23.1907 29.2337L21.8024 26.6195L19.265 25.1893L21.8024 23.7597L23.1907 21.1455L24.5783 23.7597L27.1158 25.1893ZM17.2442 21.3072L13.7266 23.2892L11.8028 26.9124L9.87904 23.2892L6.36218 21.3072L9.87904 19.3252L11.8028 15.7013L13.7266 19.3252L17.2442 21.3072Z" fill="#D3ECFF"/>
<path d="M27.045 0.0870056H7.30855C3.27861 0.0870056 0 3.46476 0 7.61657V27.9499C0 32.1017 3.27861 35.4794 7.30855 35.4794H27.045C31.0749 35.4794 34.3535 32.1017 34.3535 27.9499V7.61657C34.3535 3.46476 31.0749 0.0870056 27.045 0.0870056ZM32.3328 27.9499C32.3328 30.9537 29.9607 33.3975 27.045 33.3975H7.30855C4.39288 33.3975 2.0208 30.9537 2.0208 27.9499V7.61657C2.0208 4.61272 4.39288 2.16891 7.30855 2.16891H27.045C29.9607 2.16891 32.3328 4.61272 32.3328 7.61657V27.9499Z" fill="black"/>
<path d="M17.7289 20.3937L14.4711 18.5582L12.6895 15.2019C12.3101 14.4872 11.3014 14.4769 10.9166 15.2019L9.13482 18.5582L5.87709 20.3937C5.17716 20.7881 5.17743 21.8261 5.87703 22.2202L9.13482 24.0559L10.9166 27.4122C11.2994 28.1333 12.3069 28.1328 12.6895 27.4121L14.4711 24.0559L17.7289 22.2202C18.4287 21.8261 18.4289 20.7881 17.7289 20.3937ZM13.2419 22.3757C13.0723 22.4712 12.9329 22.6148 12.8402 22.7895L11.803 24.7434L10.7657 22.7895C10.6731 22.6148 10.5337 22.4712 10.3641 22.3757L8.46755 21.3071L10.3641 20.2385C10.5337 20.143 10.6731 19.9994 10.7657 19.8247L11.803 17.8708L12.8402 19.8247C12.9329 19.9994 13.0723 20.143 13.2419 20.2385L15.1384 21.3071L13.2419 22.3757ZM13.2419 12.3313L15.5199 13.6149L16.7658 15.9618C17.1486 16.6829 18.1562 16.6824 18.5387 15.9617L19.7846 13.6148L22.0626 12.3313C22.7625 11.9369 22.7623 10.8989 22.0626 10.5047L19.7846 9.22116L18.5388 6.87423C18.1591 6.15896 17.1513 6.1482 16.7659 6.87416L15.52 9.22102L13.242 10.5047C12.542 10.899 12.5422 11.937 13.2419 12.3313ZM16.7492 10.9013C16.9188 10.8059 17.0582 10.6623 17.1509 10.4876L17.6523 9.5431L18.1536 10.4875C18.2463 10.6622 18.3857 10.8059 18.5553 10.9013L19.4721 11.4179L18.5553 11.9345C18.3857 12.03 18.2463 12.1736 18.1536 12.3483L17.6523 13.2928L17.1509 12.3483C17.0582 12.1736 16.9188 12.03 16.7492 11.9345L15.8324 11.4179L16.7492 10.9013ZM27.6009 24.2762L25.3229 22.9926L24.077 20.6457C23.6942 19.9247 22.6868 19.9249 22.3041 20.6457L21.0582 22.9926L18.7802 24.2762C18.0804 24.6706 18.0805 25.7085 18.7802 26.1027L21.0582 27.3863L22.3041 29.7332C22.6869 30.4542 23.6943 30.454 24.077 29.7332L25.3229 27.3863L27.6009 26.1027C28.3007 25.7083 28.3006 24.6704 27.6009 24.2762ZM24.0936 25.7061C23.924 25.8015 23.7846 25.9451 23.692 26.1198L23.1905 27.0644L22.6891 26.1198C22.5964 25.9451 22.4571 25.8015 22.2875 25.7061L21.3707 25.1895L22.2875 24.6729C22.4571 24.5774 22.5964 24.4338 22.6891 24.2591L23.1905 23.3146L23.692 24.2591C23.7846 24.4338 23.924 24.5774 24.0936 24.6729L25.0104 25.1895L24.0936 25.7061Z" fill="black"/>
</svg>
