<svg width="35" height="35" viewBox="0 0 35 35" fill="none" xmlns="http://www.w3.org/2000/svg">
<path d="M1.09375 28.819H17.7464C18.2483 26.5367 20.2884 24.8233 22.7215 24.8233C25.1545 24.8233 27.1947 26.5366 27.6966 28.819H33.9062C34.5103 28.819 35 29.3082 35 29.9117C35 30.5151 34.5103 31.0044 33.9062 31.0044H27.696C27.1932 33.2855 25.1502 35 22.7215 35C20.2915 35 18.2495 33.2858 17.7468 31.0044H1.09375C0.489727 31.0044 0 30.5151 0 29.9117C0 29.3082 0.489727 28.819 1.09375 28.819ZM19.8158 29.9088L19.8159 29.9206C19.8207 31.5164 21.1241 32.8145 22.7215 32.8145C24.3167 32.8145 25.6201 31.5181 25.627 29.9231L25.6272 29.907C25.6247 28.3085 24.3222 27.0086 22.7215 27.0086C21.1215 27.0086 19.8194 28.3072 19.8157 29.9048L19.8158 29.9088ZM33.9062 6.18108H27.696C27.1931 8.46214 25.1502 10.1767 22.7215 10.1767C20.2915 10.1767 18.2495 8.46242 17.7468 6.18108H1.09375C0.489727 6.18108 0 5.6919 0 5.08839C0 4.48488 0.489727 3.9957 1.09375 3.9957H17.7464C18.2483 1.71341 20.2884 0 22.7215 0C25.1545 0 27.1947 1.71341 27.6966 3.9957H33.9062C34.5103 3.9957 35 4.48488 35 5.08839C35 5.6919 34.5103 6.18108 33.9062 6.18108ZM22.7215 2.18538C21.1215 2.18538 19.8194 3.48398 19.8157 5.08156L19.8158 5.08552L19.8159 5.09727C19.8207 6.69308 21.1241 7.99133 22.7215 7.99133C24.3167 7.99133 25.6201 6.69492 25.627 5.09993L25.6272 5.08388C25.6249 3.48514 24.3223 2.18538 22.7215 2.18538ZM33.9062 18.5927H17.2536C16.7517 20.875 14.7116 22.5883 12.2785 22.5883C9.84546 22.5883 7.80534 20.875 7.30345 18.5927H1.09375C0.489727 18.5927 0 18.1034 0 17.5C0 16.8965 0.489727 16.4073 1.09375 16.4073H7.30399C7.80691 14.1262 9.84977 12.4117 12.2785 12.4117C14.7085 12.4117 16.7505 14.126 17.2532 16.4073H33.9062C34.5103 16.4073 35 16.8965 35 17.5C35 18.1034 34.5103 18.5927 33.9062 18.5927ZM15.1842 17.5029L15.1841 17.4911C15.1793 15.8953 13.8759 14.5971 12.2785 14.5971C10.6833 14.5971 9.37986 15.8935 9.37296 17.4885L9.37275 17.5045C9.37515 19.1032 10.6777 20.4029 12.2785 20.4029C13.8785 20.4029 15.1806 19.1044 15.1843 17.5068L15.1842 17.5029Z" fill="black"/>
</svg>
