<svg width="65" height="65" viewBox="0 0 65 65" fill="none" xmlns="http://www.w3.org/2000/svg">
<path d="M64.0479 54.8438H15.0439V53.2568C15.0439 52.4993 14.743 51.7727 14.2073 51.237C13.6716 50.7013 12.9451 50.4004 12.1875 50.4004C11.4299 50.4004 10.7034 50.7013 10.1677 51.237C9.632 51.7727 9.33105 52.4993 9.33105 53.2568V54.8438H0.952148C0.699623 54.8438 0.45744 54.9441 0.278878 55.1226C0.100315 55.3012 0 55.5434 0 55.7959V59.6045C0 59.857 0.100315 60.0992 0.278878 60.2778C0.45744 60.4563 0.699623 60.5566 0.952148 60.5566H9.33105V62.1436C9.33105 62.9011 9.632 63.6277 10.1677 64.1634C10.7034 64.6991 11.4299 65 12.1875 65C12.9451 65 13.6716 64.6991 14.2073 64.1634C14.743 63.6277 15.0439 62.9011 15.0439 62.1436V60.5566H64.0479C64.3004 60.5566 64.5426 60.4563 64.7211 60.2778C64.8997 60.0992 65 59.857 65 59.6045V55.7959C65 55.5434 64.8997 55.3012 64.7211 55.1226C64.5426 54.9441 64.3004 54.8438 64.0479 54.8438ZM1.9043 58.6523V56.748H9.33105V58.6523H1.9043ZM13.1396 62.1436C13.1396 62.3961 13.0393 62.6383 12.8608 62.8168C12.6822 62.9954 12.44 63.0957 12.1875 63.0957C11.935 63.0957 11.6928 62.9954 11.5142 62.8168C11.3357 62.6383 11.2354 62.3961 11.2354 62.1436V53.2568C11.2354 53.0043 11.3357 52.7621 11.5142 52.5836C11.6928 52.405 11.935 52.3047 12.1875 52.3047C12.44 52.3047 12.6822 52.405 12.8608 52.5836C13.0393 52.7621 13.1396 53.0043 13.1396 53.2568V62.1436ZM63.0957 58.6523H15.0439V56.748H63.0957V58.6523ZM10.2832 46.3379H49.0763H50.6985C50.1463 46.3379 50.5679 46.3379 50.8106 46.3379C51.0534 46.3379 50.9859 46.3379 51.1985 46.3379C51.4111 46.3379 51.1797 46.3379 51.6797 46.3379C52.1797 46.3379 51.6797 46.3379 52.1985 46.3379H53.1985H53.5041C53.7774 46.3379 53.4327 46.3379 53.7384 46.3379C54.0441 46.3379 54.6133 46.3379 54.7384 46.3379C54.8635 46.3379 55.1164 46.3379 55.2384 46.3379C55.3603 46.3379 55.4539 46.3379 55.6689 46.3379V44.7721C55.6689 44.5377 55.6689 44.4674 55.6689 44.2721C55.6689 44.0947 55.6689 44.2198 55.6689 44.0947C55.6689 43.9696 55.6689 43.9791 55.6689 43.7721C55.6689 43.0611 55.6689 43.2444 55.6689 42.7721V41.7721C55.6689 41.5184 55.6689 41.5412 55.6689 41.2721C55.6689 41.0029 55.6689 40.4561 55.6689 40.7721C55.6689 41.088 55.6689 40.8123 55.6689 40.2721V39.7452V0.952148C55.6689 0.827111 55.6443 0.703297 55.5965 0.587777C55.5486 0.472257 55.4785 0.367293 55.3901 0.278878C55.3017 0.190463 55.1967 0.120328 55.0812 0.072478C54.9656 0.024628 54.8418 0 54.7168 0H10.2832C10.0307 0 9.7885 0.100315 9.60993 0.278878C9.43137 0.45744 9.33105 0.699623 9.33105 0.952148V45.3857C9.33105 45.6383 9.33105 46.0288 9.33105 46.3379C9.83105 46.3379 10.0307 46.3379 10.2832 46.3379ZM11.2354 1.9043H53.7646V39.306V40.0129C53.7646 39.8042 53.7646 39.9649 53.7646 40.2296C53.7646 40.8536 53.7646 41.1656 53.7646 40.5C53.7646 41.6004 53.7646 41.6288 53.7646 41.088C53.7646 42.5 53.7646 42.4336 53.7646 44.4336H48.637H11.2354V1.9043Z" fill="#011839"/>
<path d="M24.6212 19.815C26.5493 19.815 28.1124 18.252 28.1124 16.3238C28.1124 14.3957 26.5493 12.8326 24.6212 12.8326C22.693 12.8326 21.1299 14.3957 21.1299 16.3238C21.1299 18.252 22.693 19.815 24.6212 19.815Z" fill="#7738C8"/>
<path d="M37.8243 23.6922L31.0399 33.3838C30.895 33.5907 30.6738 33.7315 30.425 33.7753C30.1762 33.8191 29.9202 33.7623 29.7133 33.6174C29.5064 33.4724 29.3655 33.2512 29.3217 33.0024C29.2779 32.7536 29.3347 32.4976 29.4797 32.2907L30.5626 30.7444L26.6524 26.2719L20.3771 33.4422C20.2546 33.5819 20.1749 33.754 20.1474 33.9379C20.12 34.1217 20.1461 34.3096 20.2225 34.479C20.2989 34.6484 20.4225 34.7923 20.5784 34.8935C20.7344 34.9946 20.9162 35.0487 21.102 35.0494H43.9181C44.0951 35.0491 44.2686 35.0003 44.4199 34.9084C44.5711 34.8165 44.6944 34.685 44.7763 34.5281C44.8581 34.3711 44.8955 34.1948 44.8843 34.0182C44.8731 33.8415 44.8138 33.6713 44.7128 33.526L37.8243 23.6922Z" fill="#7738C8"/>
<path d="M48.1075 6.48495H16.3692C15.9485 6.48563 15.5453 6.65303 15.2478 6.95049C14.9504 7.24795 14.783 7.6512 14.7823 8.07187V39.8102C14.783 40.2308 14.9504 40.6341 15.2478 40.9315C15.5453 41.229 15.9485 41.3964 16.3692 41.3971H45.7969L45.6408 40.7191C45.5333 40.2538 45.5459 39.7688 45.6776 39.3097C45.8092 38.8506 46.0555 38.4326 46.3933 38.095C46.731 37.7573 47.1492 37.5112 47.6083 37.3797C48.0674 37.2482 48.5525 37.2358 49.0177 37.3435L49.6944 37.4996V8.07187C49.6937 7.6512 49.5263 7.24795 49.2289 6.95049C48.9314 6.65303 48.5282 6.48563 48.1075 6.48495ZM35.4122 10.9283H44.2989C44.5514 10.9283 44.7936 11.0286 44.9722 11.2072C45.1507 11.3858 45.251 11.6279 45.251 11.8805C45.251 12.133 45.1507 12.3752 44.9722 12.5537C44.7936 12.7323 44.5514 12.8326 44.2989 12.8326H35.4122C35.1596 12.8326 34.9175 12.7323 34.7389 12.5537C34.5603 12.3752 34.46 12.133 34.46 11.8805C34.46 11.6279 34.5603 11.3858 34.7389 11.2072C34.9175 11.0286 35.1596 10.9283 35.4122 10.9283ZM45.251 15.6891C45.251 15.8141 45.2264 15.9379 45.1786 16.0534C45.1307 16.1689 45.0606 16.2739 44.9722 16.3623C44.8837 16.4507 44.7788 16.5209 44.6633 16.5687C44.5477 16.6166 44.4239 16.6412 44.2989 16.6412H40.4903C40.2378 16.6412 39.9956 16.5409 39.817 16.3623C39.6385 16.1838 39.5381 15.9416 39.5381 15.6891C39.5381 15.4365 39.6385 15.1943 39.817 15.0158C39.9956 14.8372 40.2378 14.7369 40.4903 14.7369H44.2989C44.5514 14.7369 44.7936 14.8372 44.9722 15.0158C45.1507 15.1943 45.251 15.4365 45.251 15.6891ZM24.6212 10.9283C25.6883 10.9283 26.7315 11.2448 27.6187 11.8376C28.506 12.4305 29.1976 13.2732 29.606 14.2591C30.0143 15.245 30.1212 16.3298 29.913 17.3764C29.7048 18.4231 29.1909 19.3844 28.4364 20.139C27.6818 20.8936 26.7204 21.4075 25.6738 21.6157C24.6271 21.8238 23.5423 21.717 22.5564 21.3086C21.5705 20.9002 20.7278 20.2087 20.135 19.3214C19.5421 18.4341 19.2256 17.391 19.2256 16.3238C19.2273 14.8934 19.7963 13.522 20.8078 12.5105C21.8193 11.499 23.1907 10.93 24.6212 10.9283ZM46.4571 35.4074C46.2158 35.8727 45.8515 36.263 45.4038 36.5356C44.9561 36.8083 44.4422 36.9529 43.918 36.9537H21.102C20.5505 36.9529 20.0108 36.7934 19.5475 36.4941C19.0841 36.1949 18.7167 35.7686 18.4892 35.2662C18.2616 34.7638 18.1834 34.2064 18.264 33.6608C18.3447 33.1152 18.5807 32.6043 18.9438 32.1892L25.9351 24.1987C26.0245 24.0966 26.1347 24.0147 26.2583 23.9586C26.3819 23.9025 26.516 23.8735 26.6518 23.8735C26.7875 23.8735 26.9217 23.9025 27.0453 23.9586C27.1689 24.0147 27.2791 24.0966 27.3684 24.1987L31.6848 29.1385L37.041 21.4857C37.1288 21.3603 37.2455 21.2578 37.3813 21.1871C37.5171 21.1164 37.668 21.0795 37.8211 21.0795C37.9742 21.0795 38.1251 21.1164 38.2609 21.1871C38.3967 21.2578 38.5134 21.3603 38.6012 21.4857L46.2641 32.4329C46.5662 32.8632 46.744 33.3684 46.7781 33.8931C46.8121 34.4178 46.7011 34.9417 46.4571 35.4074Z" fill="#7738C8"/>
</svg>
