<svg width="21" height="18" viewBox="0 0 21 18" fill="none" xmlns="http://www.w3.org/2000/svg">
<path d="M7.29087 17.25H9.44709C9.8156 17.2325 10.1631 17.0766 10.4176 16.8144C10.6722 16.5523 10.8141 16.2041 10.8141 15.842C10.8141 15.48 10.6722 15.1318 10.4176 14.8697C10.1631 14.6075 9.8156 14.4516 9.44709 14.4341H7.29087C6.32759 14.4057 5.41347 14.0102 4.74234 13.3314C4.07121 12.6527 3.69584 11.7441 3.69584 10.7984C3.69584 9.85263 4.07121 8.94406 4.74234 8.26534C5.41347 7.58661 6.32759 7.19111 7.29087 7.16268H14.7841L13.5653 8.35542C13.3172 8.62348 13.1837 8.97498 13.1926 9.33702C13.2014 9.69907 13.3519 10.0439 13.6129 10.3C13.8738 10.556 14.2252 10.7037 14.5941 10.7124C14.963 10.7211 15.3212 10.5901 15.5943 10.3466L20.044 5.98638C20.0751 5.95568 20.0996 5.91926 20.1163 5.87923C20.1329 5.8392 20.1414 5.79633 20.1411 5.75309C20.1408 5.66689 20.1059 5.58429 20.044 5.52309L15.5977 1.16287C15.329 0.898821 14.9646 0.750309 14.5844 0.75C14.2042 0.749692 13.8394 0.897614 13.5704 1.16122C13.3013 1.42484 13.15 1.78254 13.1496 2.15565C13.1493 2.52876 13.3001 2.88671 13.5687 3.15076L14.7841 4.34678H7.45828C5.65038 4.35558 3.91903 5.06402 2.64027 6.31824C2.032 6.9067 1.54911 7.60805 1.21974 8.38144C0.890368 9.15483 0.721094 9.98481 0.721775 10.823C0.72621 12.5296 1.42037 14.1648 2.65193 15.3697C3.88349 16.5747 5.55184 17.2509 7.29087 17.25ZM9.44709 15.0912C9.64125 15.1039 9.82326 15.1884 9.95623 15.3279C10.0892 15.4673 10.1632 15.6511 10.1632 15.842C10.1632 16.033 10.0892 16.2168 9.95623 16.3562C9.82326 16.4956 9.64125 16.5802 9.44709 16.5928H7.29087C5.72913 16.5929 4.23111 15.9851 3.12523 14.9029C2.01934 13.8207 1.39584 12.3524 1.39141 10.8197C1.39396 10.0718 1.54768 9.33183 1.84366 8.64261C2.13964 7.95339 2.57201 7.32864 3.11571 6.80453C4.26885 5.6676 5.83375 5.02495 7.46833 5.01708H15.5943C15.6604 5.01675 15.7249 4.99723 15.7798 4.96098C15.8346 4.92473 15.8772 4.87336 15.9023 4.81336C15.928 4.75352 15.935 4.68757 15.9225 4.62383C15.91 4.56009 15.8785 4.50142 15.832 4.45521L14.0441 2.70061C13.9722 2.63135 13.9149 2.54888 13.8755 2.4579C13.8361 2.36692 13.8154 2.26921 13.8144 2.17036C13.8135 2.0715 13.8324 1.97343 13.8701 1.88175C13.9078 1.79007 13.9635 1.70657 14.0341 1.63602C14.1046 1.56547 14.1887 1.50925 14.2814 1.47058C14.3741 1.4319 14.4737 1.41152 14.5744 1.41061C14.6751 1.40969 14.7751 1.42826 14.8685 1.46524C14.9619 1.50223 15.047 1.55691 15.1189 1.62616L19.3342 5.75309L15.1189 9.8833C14.9755 10.0236 14.7811 10.1023 14.5786 10.1019C14.3761 10.1016 14.1821 10.0224 14.0391 9.88166C13.8961 9.74092 13.816 9.55021 13.8163 9.35149C13.8166 9.15276 13.8974 8.9623 14.0408 8.822L15.8287 7.06411C15.8748 7.01798 15.906 6.95955 15.9184 6.89612C15.9308 6.83269 15.9239 6.76708 15.8985 6.70748C15.8732 6.64787 15.8305 6.59693 15.7758 6.56101C15.7211 6.5251 15.6568 6.5058 15.591 6.50553H7.28752C6.70289 6.48966 6.12094 6.58895 5.57608 6.79755C5.03122 7.00615 4.53449 7.31981 4.11525 7.72001C3.69601 8.12021 3.36277 8.59882 3.13523 9.12756C2.90768 9.65629 2.79044 10.2244 2.79044 10.7984C2.79044 11.3723 2.90768 11.9405 3.13523 12.4692C3.36277 12.998 3.69601 13.4766 4.11525 13.8768C4.53449 14.277 5.03122 14.5906 5.57608 14.7992C6.12094 15.0078 6.70289 15.1071 7.28752 15.0912H9.44709Z" fill="black"/>
</svg>
