<svg width="35" height="35" viewBox="0 0 35 35" fill="none" xmlns="http://www.w3.org/2000/svg">
<path d="M4.08338 4.66662H0.583447C0.261475 4.66662 0 4.40549 0 4.08338V0.583447C0 0.261475 0.261406 0 0.583447 0H4.08345C4.40542 0 4.66655 0.261406 4.66655 0.583447V4.08345C4.66655 4.40542 4.40542 4.66655 4.08345 4.66655L4.08338 4.66662ZM1.16662 3.49993H3.5V1.16662H1.16662V3.49993ZM34.4166 4.66662H30.9166C30.7619 4.66658 30.6136 4.60512 30.5042 4.49575C30.3949 4.38637 30.3334 4.23804 30.3334 4.08338V0.583447C30.3334 0.261475 30.5946 0 30.9166 0H34.4166C34.7385 0 35 0.261406 35 0.583447V4.08345C35 4.40542 34.7386 4.66662 34.4166 4.66662ZM31.5 3.49993H33.8333V1.16662H31.5V3.49993ZM4.08338 35H0.583447C0.261475 35 0 34.7386 0 34.4166V30.9166C0 30.5946 0.261406 30.3334 0.583447 30.3334H4.08345C4.40542 30.3334 4.66655 30.5946 4.66655 30.9166V34.4166C4.66655 34.7385 4.40535 35 4.08338 35ZM1.16662 33.8334H3.5V31.5H1.16662V33.8334ZM34.4166 35H30.9166C30.5946 35 30.3334 34.7386 30.3334 34.4166V30.9166C30.3334 30.5946 30.5946 30.3334 30.9166 30.3334H34.4166C34.7385 30.3334 35 30.5946 35 30.9166V34.4166C35 34.7385 34.7386 35 34.4166 35ZM31.5 33.8334H33.8333V31.5H31.5V33.8334Z" fill="black"/>
<path d="M30.9189 2.91676H5.23344C4.92524 2.91676 4.67495 2.65535 4.67495 2.33331C4.67495 2.01127 4.92517 1.75014 5.23344 1.75014H30.9189C31.2271 1.75014 31.4774 2.01127 31.4774 2.33324C31.4774 2.65535 31.2272 2.91676 30.9189 2.91676ZM3.55823 31.5C3.24996 31.5 3 31.2387 3 30.9166V4.08338C3 3.76141 3.24996 3.49993 3.55816 3.49993C3.86649 3.49993 4.11672 3.76134 4.11672 4.08338V30.9166C4.11672 31.2386 3.86649 31.5001 3.55823 31.5001V31.5ZM30.9189 33.2499H5.23344C4.92524 33.2499 4.67495 32.9887 4.67495 32.6668C4.67495 32.3447 4.92517 32.0832 5.23344 32.0832H30.9189C31.2271 32.0832 31.4774 32.3447 31.4774 32.6667C31.4774 32.9887 31.2272 33.2499 30.9189 33.2499ZM32.5941 31.5C32.2859 31.5 32.0356 31.2387 32.0356 30.9166V4.08338C32.0356 3.76141 32.2858 3.49993 32.5941 3.49993C32.9024 3.49993 33.1523 3.76134 33.1523 4.08338V30.9166C33.1523 31.2386 32.9024 31.5001 32.5942 31.5001L32.5941 31.5ZM22.5432 29.1668H13.0507C12.7425 29.1668 12.4924 28.9054 12.4924 28.5833V25.6666C12.4924 25.3448 12.7424 25.0834 13.0507 25.0834H15.8427V11.0833H12.4924V12.8334C12.4924 13.1554 12.2422 13.4166 11.934 13.4166H9.14196C8.83395 13.4166 8.58373 13.1555 8.58373 12.8334V7.58338C8.58373 7.26134 8.83395 6.99986 9.14189 6.99986H26.4519C26.7601 6.99986 27.0104 7.26134 27.0104 7.58338V12.8334C27.0104 13.1554 26.7602 13.4166 26.4519 13.4166H23.6599C23.5118 13.4166 23.3699 13.3551 23.2652 13.2458C23.1605 13.1364 23.1017 12.9881 23.1017 12.8334V11.0833H19.7514V25.0833H22.5432C22.8514 25.0833 23.1017 25.3448 23.1017 25.6666V28.5833C23.1017 28.9053 22.8514 29.1668 22.5432 29.1668ZM13.6092 28.0001H21.9849V26.25H19.1929C18.8847 26.25 18.6347 25.9886 18.6347 25.6666V10.5001C18.6347 10.1781 18.8847 9.91662 19.1929 9.91662H23.6599C23.9682 9.91662 24.2184 10.1781 24.2184 10.5001V12.2499H25.8934V8.16655H9.70045V12.2499H11.3757V10.5001C11.3757 10.1781 11.6257 9.91662 11.9339 9.91662H16.4009C16.7092 9.91662 16.9594 10.1781 16.9594 10.5001V25.6666C16.9594 25.9885 16.7092 26.25 16.4009 26.25H13.6092V28.0001Z" fill="black"/>
</svg>
